<svg width="673" height="341" viewBox="0 0 673 341" fill="none" xmlns="http://www.w3.org/2000/svg">
<path d="M287.894 234.334L272.979 272.265H277.42L282.059 260.247H297.183L301.876 272.265H306.419L291.583 234.334H287.894ZM283.609 256.289L288.044 244.596C288.753 242.611 289.294 240.801 289.672 239.147C290.279 241.294 290.862 243.116 291.427 244.596L295.813 256.289H283.609Z" fill="white"/>
<path d="M289.204 207.092H330.029L284.385 68.2227H234.583L189.51 207.092H230.521L237.515 181.168H282.402L289.204 207.092ZM259.766 106.773C269.23 106.773 276.928 114.491 276.928 123.952C276.928 127.351 275.93 130.671 274.043 133.504C273.701 134.039 272.998 134.172 272.469 133.829C271.946 133.468 271.808 132.77 272.151 132.247C273.791 129.787 274.662 126.912 274.662 123.952C274.662 115.736 267.98 109.041 259.766 109.041C251.552 109.041 244.87 115.724 244.87 123.952C244.87 129.384 247.838 134.388 252.61 137.047C253.156 137.354 253.355 138.046 253.048 138.587C252.844 138.966 252.453 139.182 252.057 139.182C251.87 139.182 251.678 139.14 251.504 139.05C246.012 136.012 242.605 130.232 242.605 123.97C242.605 114.491 250.302 106.773 259.766 106.773ZM259.766 114.725C254.683 114.725 250.548 118.863 250.548 123.952C250.548 126.442 251.528 128.788 253.301 130.539C253.745 130.978 253.751 131.694 253.313 132.157C253.09 132.373 252.796 132.5 252.501 132.5C252.213 132.5 251.925 132.385 251.702 132.169C249.497 129.985 248.283 127.062 248.283 123.97C248.283 117.624 253.433 112.469 259.766 112.469C266.1 112.469 271.249 117.624 271.249 123.97C271.249 126.978 270.108 129.829 268.022 131.97C267.584 132.415 266.869 132.427 266.412 131.994C265.967 131.567 265.955 130.851 266.388 130.376C268.058 128.668 268.984 126.382 268.984 123.97C268.99 118.876 264.85 114.725 259.766 114.725ZM279.926 154.834C279.475 156.963 276.261 166.058 268.281 166.058C261.539 166.058 258.691 165.775 253.859 157.901C251.462 153.997 246.985 150.406 245.946 147.249C245.146 144.849 248.001 139.435 256.041 146.262C256.041 146.262 256.041 129.27 256.059 123.603C256.065 118.172 264.057 118.479 264.026 123.579C264.008 126.689 263.96 136.957 263.96 136.957C263.96 136.957 266.598 134.16 269.26 136.957C269.26 136.957 271.964 134.118 274.843 136.957C274.843 136.957 278.286 135.321 279.734 138.954C281.176 142.593 280.731 150.948 279.926 154.834Z" fill="white"/>
<path d="M256.281 256.398H264.718V268.025C262.224 268.633 259.67 268.921 257.056 268.921C252.237 268.921 248.59 267.604 246.102 264.976C243.62 262.341 242.376 258.473 242.376 253.366C242.376 248.506 243.668 244.717 246.252 241.974C248.83 239.237 252.417 237.854 257.008 237.854C260.157 237.854 263.432 238.581 266.845 240.025L268.545 236.139C265.072 234.666 261.323 233.926 257.297 233.926C253.325 233.926 249.857 234.702 246.901 236.272C243.939 237.836 241.673 240.091 240.099 243.039C238.525 245.98 237.731 249.433 237.731 253.354C237.731 259.496 239.33 264.26 242.509 267.652C245.687 271.051 250.14 272.771 255.854 272.771C258.57 272.771 260.962 272.609 263.023 272.278C265.084 271.941 267.121 271.46 269.116 270.834V252.452H256.281V256.398Z" fill="white"/>
<path d="M155.685 169.342V127.639H181.95V99.9098H155.685V78.4541H131.493L121.951 100.962L105.511 112.596V127.651H118.454V171.826C118.454 184.44 121.194 193.775 126.674 199.868C132.154 205.955 141.096 209.005 153.51 209.005C159.561 209.005 164.837 208.548 169.338 207.628C173.844 206.713 178.585 205.186 183.561 203.038V176.085C176.632 178.539 170.672 179.766 165.696 179.766C159.02 179.754 155.685 176.289 155.685 169.342Z" fill="white"/>
<path d="M322.499 251.357C320.144 250.503 318.389 249.727 317.253 249.035C316.112 248.35 315.294 247.574 314.814 246.732C314.333 245.889 314.093 244.837 314.093 243.526C314.093 241.751 314.742 240.374 316.052 239.375C317.362 238.377 319.176 237.871 321.496 237.871C324.434 237.871 327.463 238.521 330.581 239.832L331.951 236.007C328.803 234.629 325.353 233.938 321.598 233.938C318.005 233.938 315.114 234.804 312.933 236.53C310.752 238.238 309.652 240.56 309.652 243.465C309.652 246.238 310.409 248.494 311.911 250.208C313.42 251.929 315.925 253.408 319.435 254.665C321.946 255.568 323.815 256.368 325.053 257.071C326.279 257.769 327.162 258.545 327.685 259.387C328.214 260.229 328.472 261.282 328.472 262.593C328.472 264.572 327.733 266.13 326.255 267.231C324.777 268.362 322.577 268.897 319.645 268.897C317.854 268.897 316.052 268.711 314.231 268.326C312.404 267.947 310.722 267.429 309.171 266.774V271.002C311.575 272.157 315.024 272.735 319.495 272.735C323.629 272.735 326.886 271.802 329.301 269.938C331.705 268.073 332.919 265.493 332.919 262.16C332.919 259.574 332.174 257.492 330.683 255.862C329.181 254.28 326.459 252.765 322.499 251.357Z" fill="white"/>
<path d="M554.36 80.247C545.599 72.6018 532.493 68.8003 515.049 68.8003H467.236V207.099H504.558V161.216H515.049C531.802 161.216 544.733 157.017 553.837 148.584C562.941 140.151 567.489 128.229 567.489 112.776C567.489 98.7252 563.115 87.868 554.36 80.247ZM524.73 126.028C521.425 129.167 516.966 130.743 511.354 130.743H504.54V98.9719H514.178C524.513 98.9719 529.681 103.628 529.681 112.975C529.687 118.521 528.041 122.87 524.73 126.028Z" fill="white"/>
<path d="M432.078 80.247C423.323 72.6018 410.212 68.8003 392.762 68.8003H344.955V207.099H382.282V161.216H392.762C409.521 161.216 422.452 157.017 431.561 148.584C440.665 140.163 445.208 128.229 445.208 112.776C445.22 98.7252 440.833 87.868 432.078 80.247ZM402.46 126.028C399.149 129.167 394.702 130.743 389.084 130.743H382.282V98.9719H391.92C402.262 98.9719 407.423 103.628 407.423 112.975C407.423 118.521 405.753 122.87 402.46 126.028Z" fill="white"/>
<path d="M418.005 233.89C412.429 233.89 408.114 235.58 405.104 238.984C402.075 242.371 400.561 247.129 400.561 253.282C400.561 259.466 402.069 264.278 405.092 267.682C408.108 271.081 412.399 272.801 417.963 272.801C423.389 272.801 427.637 271.063 430.69 267.61C433.748 264.151 435.275 259.394 435.275 253.354C435.275 247.285 433.748 242.527 430.708 239.093C427.655 235.628 423.425 233.89 418.005 233.89ZM427.427 264.975C425.3 267.61 422.133 268.921 417.963 268.921C413.823 268.921 410.65 267.598 408.481 264.951C406.312 262.317 405.206 258.431 405.206 253.318C405.206 248.26 406.312 244.422 408.481 241.775C410.65 239.141 413.841 237.823 418.011 237.823C422.169 237.823 425.33 239.129 427.439 241.751C429.56 244.386 430.624 248.236 430.624 253.318C430.624 258.455 429.554 262.329 427.427 264.975Z" fill="white"/>
<path d="M393.771 245.156C393.771 241.595 392.665 238.924 390.448 237.156C388.243 235.381 384.812 234.497 380.191 234.497H369.85V272.266H374.23V256.56H382.102L391.241 272.266H396.427L386.182 255.291C391.235 253.529 393.771 250.148 393.771 245.156ZM380.251 252.777H374.23V238.347H379.933C383.183 238.347 385.557 238.9 387.023 239.983C388.489 241.096 389.228 242.876 389.228 245.378C389.228 247.844 388.501 249.697 387.065 250.924C385.623 252.157 383.352 252.777 380.251 252.777Z" fill="white"/>
<path d="M335.887 238.389H347.839V272.259H352.225V238.389H364.171V234.485H335.887V238.389Z" fill="white"/>
</svg>
