<svg id="Warstwa_1" data-name="Warstwa 1" xmlns="http://www.w3.org/2000/svg" xmlns:xlink="http://www.w3.org/1999/xlink" viewBox="0 0 869 126"><defs><style>.cls-1{fill:url(#New_Gradient_Swatch_copy);}.cls-2{fill:url(#New_Gradient_Swatch_copy-2);}.cls-3{fill:url(#New_Gradient_Swatch_copy-3);}.cls-4{fill:url(#New_Gradient_Swatch_copy-4);}.cls-5{fill:url(#New_Gradient_Swatch_copy-5);}.cls-6{fill:url(#New_Gradient_Swatch_copy-6);}.cls-7{fill:url(#New_Gradient_Swatch_copy-7);}.cls-8{fill:url(#New_Gradient_Swatch_copy-8);}.cls-9{fill:url(#New_Gradient_Swatch_copy-9);}.cls-10{fill:url(#New_Gradient_Swatch_copy-10);}.cls-11{fill:url(#New_Gradient_Swatch_copy-11);}.cls-12{fill:url(#New_Gradient_Swatch_copy-12);}</style><linearGradient id="New_Gradient_Swatch_copy" x1="49.02" y1="44.29" x2="931.62" y2="926.89" gradientUnits="userSpaceOnUse"><stop offset="0" stop-color="#ffffff"/><stop offset="0.24" stop-color="#ffffff"/><stop offset="0.64" stop-color="#ffffff"/><stop offset="0.99" stop-color="#ffffff"/></linearGradient><linearGradient id="New_Gradient_Swatch_copy-2" x1="28.39" y1="-41.04" x2="992.47" y2="923.04" xlink:href="#New_Gradient_Swatch_copy"/><linearGradient id="New_Gradient_Swatch_copy-3" x1="14" y1="-130.74" x2="958.83" y2="814.09" xlink:href="#New_Gradient_Swatch_copy"/><linearGradient id="New_Gradient_Swatch_copy-4" x1="25.03" y1="-197.62" x2="878.26" y2="655.62" xlink:href="#New_Gradient_Swatch_copy"/><linearGradient id="New_Gradient_Swatch_copy-5" x1="-53.54" y1="-328.94" x2="971.08" y2="695.68" xlink:href="#New_Gradient_Swatch_copy"/><linearGradient id="New_Gradient_Swatch_copy-6" x1="-5.35" y1="-358.5" x2="875.51" y2="522.36" xlink:href="#New_Gradient_Swatch_copy"/><linearGradient id="New_Gradient_Swatch_copy-7" x1="-21.79" y1="-480.24" x2="859.06" y2="400.6" xlink:href="#New_Gradient_Swatch_copy"/><linearGradient id="New_Gradient_Swatch_copy-8" x1="-92.82" y1="-616.38" x2="872.24" y2="348.67" xlink:href="#New_Gradient_Swatch_copy"/><linearGradient id="New_Gradient_Swatch_copy-9" x1="-356.62" y1="-937.22" x2="909.05" y2="328.45" xlink:href="#New_Gradient_Swatch_copy"/><linearGradient id="New_Gradient_Swatch_copy-10" x1="-1843.45" y1="-2476.37" x2="1157.19" y2="524.27" xlink:href="#New_Gradient_Swatch_copy"/><linearGradient id="New_Gradient_Swatch_copy-11" x1="-133.22" y1="-808.29" x2="831.83" y2="156.77" xlink:href="#New_Gradient_Swatch_copy"/><linearGradient id="New_Gradient_Swatch_copy-12" x1="-309.97" y1="-1061.13" x2="813" y2="61.85" xlink:href="#New_Gradient_Swatch_copy"/></defs><title>GastroOnlineLogo</title><path class="cls-1" d="M55.38,32.32a13,13,0,0,0-1.19,5.35V89.21a14.88,14.88,0,0,0,2.37,7.87,15,15,0,0,0,6.24,5,12.88,12.88,0,0,0,5.5,1,14,14,0,0,0,12.77-8.46,14.18,14.18,0,0,0,1.19-5.5V80.45a2.44,2.44,0,0,0-.74-1.78,2.61,2.61,0,0,0-1.93-.75H73.2a7,7,0,0,1-5.13-2.15,7.21,7.21,0,0,1-2.15-5.27,7.34,7.34,0,0,1,7.28-7.28H89.54a6.81,6.81,0,0,1,5.2,2.23,6.89,6.89,0,0,1,2.08,5V89.21a27.64,27.64,0,0,1-4.91,16A28.05,28.05,0,0,1,68.3,117.88a28.6,28.6,0,0,1-16-4.9,31,31,0,0,1-6.09-5.57,27.57,27.57,0,0,1-4.31-7.06,28.59,28.59,0,0,1-2.23-11.14V37.67a29.59,29.59,0,0,1,1.19-8.39,23.69,23.69,0,0,1,3.71-7.5,26.43,26.43,0,0,1,12.63-10.4,26.82,26.82,0,0,1,11-2.23h.15a27.39,27.39,0,0,1,15.89,4.9,32.25,32.25,0,0,1,6.09,5.5,26.72,26.72,0,0,1,4.31,7,28.77,28.77,0,0,1,2.23,11.14,7.25,7.25,0,0,1-2.16,5.2,7,7,0,0,1-10.25,0,7.28,7.28,0,0,1-2.15-5.2A14.58,14.58,0,0,0,79.88,30a15,15,0,0,0-6.24-5.05,12.92,12.92,0,0,0-5.34-1.19,14.23,14.23,0,0,0-4.16.59,14.42,14.42,0,0,0-3.72,1.78A13.17,13.17,0,0,0,55.38,32.32Z"/><path class="cls-2" d="M165.59,26.68A28.62,28.62,0,0,1,168,37.82v72.93a7,7,0,0,1-2.15,5.12,7.16,7.16,0,0,1-5.27,2.16,7.36,7.36,0,0,1-7.28-7.28v-30a2.54,2.54,0,0,0-2.67-2.67H128a2.55,2.55,0,0,0-2.68,2.67v30a7,7,0,0,1-2.15,5.12,7.16,7.16,0,0,1-5.27,2.16,7.36,7.36,0,0,1-7.28-7.28V37.82a28.29,28.29,0,0,1,1.26-8.39,27.09,27.09,0,0,1,3.64-7.51,26.41,26.41,0,0,1,12.63-10.39A28.56,28.56,0,0,1,139.3,9.3a27.63,27.63,0,0,1,16,4.9A26.81,26.81,0,0,1,165.59,26.68Zm-15,36.69a2.81,2.81,0,0,0,1.93-.67,2.4,2.4,0,0,0,.74-1.86v-23a12.77,12.77,0,0,0-2.38-7.73A13.26,13.26,0,0,0,144.79,25a14.11,14.11,0,0,0-5.49-1.18,14.91,14.91,0,0,0-7.88,2.37,13.25,13.25,0,0,0-5,6.24,9.08,9.08,0,0,0-.81,2.6,17.49,17.49,0,0,0-.23,2.75v23a2.38,2.38,0,0,0,.75,1.86,2.78,2.78,0,0,0,1.93.67Z"/><path class="cls-3" d="M201.83,25.94a11.45,11.45,0,0,0-4.16,5,11.82,11.82,0,0,0,.15,9.35,20.81,20.81,0,0,0,3.12,5.5,39.49,39.49,0,0,0,4.75,5.42q3,2.9,7.43,6.76,1.92,1.63,4.23,3.64c1.53,1.33,3,2.8,4.53,4.38A52.86,52.86,0,0,1,226,70.57q1.71,2.16,3.2,4.23a28.62,28.62,0,0,1,3.41,6.69,28.49,28.49,0,0,1,2.08,10.39,25.14,25.14,0,0,1-4.6,14.56A27.52,27.52,0,0,1,218.61,116a26.47,26.47,0,0,1-10.1,2.08,25.33,25.33,0,0,1-14.7-4.61A26.11,26.11,0,0,1,184.3,102a26.47,26.47,0,0,1-1.93-10.1,7.19,7.19,0,0,1,2.15-5.27,7.18,7.18,0,0,1,10.25,0,7.16,7.16,0,0,1,2.16,5.27,12,12,0,0,0,1.93,6.39,12.67,12.67,0,0,0,5,4.16,12.34,12.34,0,0,0,4.6.89,11,11,0,0,0,6.39-1.93,12.67,12.67,0,0,0,4.16-5,12.34,12.34,0,0,0,.89-4.6,11.52,11.52,0,0,0-1-4.91,21,21,0,0,0-3-5.34,61.47,61.47,0,0,0-4.83-5.5q-2.9-3-7.5-6.83L197.89,64a55.92,55.92,0,0,1-5.42-5.57,40.73,40.73,0,0,1-8.32-12.62,28.54,28.54,0,0,1-2.08-10.4,25.22,25.22,0,0,1,1.19-7.72,29.66,29.66,0,0,1,3.27-7,26.94,26.94,0,0,1,11.58-9.36,24.21,24.21,0,0,1,10.1-2.08,25.45,25.45,0,0,1,14.71,4.46,27.56,27.56,0,0,1,9.51,11.43,27.13,27.13,0,0,1,1.93,10.25,7.28,7.28,0,0,1-14.56,0,12.18,12.18,0,0,0-1.93-6.53,12.5,12.5,0,0,0-5.2-4.16,11.1,11.1,0,0,0-4.46-.89A10.9,10.9,0,0,0,201.83,25.94Z"/><path class="cls-4" d="M274.31,118a6.89,6.89,0,0,1-5.12-2.23,7.25,7.25,0,0,1-2.16-5.2V26.23a2.54,2.54,0,0,0-2.67-2.67H250.55a7,7,0,0,1-5.13-2.16,7.17,7.17,0,0,1,0-10.24A7,7,0,0,1,250.55,9h47.38a7,7,0,0,1,5.12,2.16,7.15,7.15,0,0,1,0,10.24,7,7,0,0,1-5.12,2.16H284.26a2.37,2.37,0,0,0-1.85.74,2.77,2.77,0,0,0-.67,1.93V110.6a7.62,7.62,0,0,1-7.43,7.43Z"/><path class="cls-5" d="M369.82,57.28a28.5,28.5,0,0,1-4.9,5.79,3,3,0,0,0-.89,1.78,2.24,2.24,0,0,0,.44,1.78,25.38,25.38,0,0,1,5,12q.45,2.67,1,6.31t1,7.57c.34,2.63.69,5.15,1,7.58s.66,4.43,1,6l.45,3.42a7,7,0,0,1-1.41,5.42,7.2,7.2,0,0,1-4.83,2.9,2.55,2.55,0,0,1-1,.15,7.08,7.08,0,0,1-4.75-1.79,7.35,7.35,0,0,1-2.53-4.6c0-.1-.17-1.36-.52-3.79s-.74-5.29-1.19-8.61-.91-6.69-1.41-10.1-.89-6.22-1.19-8.4a11.44,11.44,0,0,0-3.86-7,11.05,11.05,0,0,0-7.43-2.82H334a2.54,2.54,0,0,0-2.67,2.67v37a7.14,7.14,0,0,1-2.16,5.27,7,7,0,0,1-5.12,2.16,7.38,7.38,0,0,1-7.43-7.43v-94a7.14,7.14,0,0,1,2.23-5.2,7,7,0,0,1,5.2-2.08h20.2a30.14,30.14,0,0,1,17.23,5.2A30.57,30.57,0,0,1,372.79,28,33.87,33.87,0,0,1,374.57,34a30.68,30.68,0,0,1,.6,6.09A29.2,29.2,0,0,1,369.82,57.28ZM359.27,46.43a18.6,18.6,0,0,0,1.19-6.38A16.92,16.92,0,0,0,357.79,31a16.62,16.62,0,0,0-13.52-7.13H334a2.54,2.54,0,0,0-2.67,2.67V53.71a2.39,2.39,0,0,0,.74,1.78,2.59,2.59,0,0,0,1.93.75h10.25a16,16,0,0,0,9.06-2.68A14.9,14.9,0,0,0,359.27,46.43Z"/><path class="cls-6" d="M400.57,113a31.33,31.33,0,0,1-6.1-5.57,27.82,27.82,0,0,1-4.3-7.06,28.59,28.59,0,0,1-2.23-11.14V37.67a28.29,28.29,0,0,1,1.26-8.39,27.17,27.17,0,0,1,3.64-7.5,26.43,26.43,0,0,1,12.63-10.4,28.56,28.56,0,0,1,11.14-2.23,27.63,27.63,0,0,1,16,4.9A26.81,26.81,0,0,1,442.9,26.53a28.62,28.62,0,0,1,2.37,11.14V89.21a28.55,28.55,0,0,1-4.9,16,30.68,30.68,0,0,1-5.57,6.09,28,28,0,0,1-7.05,4.31A28.8,28.8,0,0,1,400.57,113Zm2.07-23.77A13.46,13.46,0,0,0,405,97.08a13.25,13.25,0,0,0,6.09,5,14.14,14.14,0,0,0,5.5,1,13.47,13.47,0,0,0,7.87-2.37,13.3,13.3,0,0,0,5-6.09,14.4,14.4,0,0,0,1-5.5V37.67A12.78,12.78,0,0,0,428.19,30a13.2,13.2,0,0,0-6.09-5.05,14,14,0,0,0-5.49-1.19,14.91,14.91,0,0,0-7.88,2.37,13.19,13.19,0,0,0-5.05,6.24,9.18,9.18,0,0,0-.81,2.6,17.49,17.49,0,0,0-.23,2.75Z"/><path class="cls-7" d="M505.87,113a31.56,31.56,0,0,1-6.09-5.57,27.54,27.54,0,0,1-4.3-7.06,28.59,28.59,0,0,1-2.23-11.14V37.67a28.29,28.29,0,0,1,1.26-8.39,26.89,26.89,0,0,1,3.64-7.5,26.41,26.41,0,0,1,12.62-10.4,28.63,28.63,0,0,1,11.14-2.23A27.66,27.66,0,0,1,538,14.05a26.81,26.81,0,0,1,10.25,12.48,28.62,28.62,0,0,1,2.37,11.14V89.21a28.55,28.55,0,0,1-4.9,16,30.68,30.68,0,0,1-5.57,6.09,27.85,27.85,0,0,1-7.06,4.31A28.8,28.8,0,0,1,505.87,113ZM508,89.21a13.39,13.39,0,0,0,2.38,7.87,13.2,13.2,0,0,0,6.09,5,14.13,14.13,0,0,0,5.49,1,14,14,0,0,0,12.93-8.46,14.4,14.4,0,0,0,1-5.5V37.67A12.78,12.78,0,0,0,533.5,30a13.25,13.25,0,0,0-6.09-5.05,14,14,0,0,0-5.5-1.19A14.91,14.91,0,0,0,514,26.08a13.19,13.19,0,0,0-5,6.24,9.52,9.52,0,0,0-.82,2.6,18.73,18.73,0,0,0-.22,2.75Z"/><path class="cls-8" d="M619.65,26.53A28.64,28.64,0,0,1,622,37.67v73.08a7.38,7.38,0,0,1-7.28,7.28,7.25,7.25,0,0,1-5.2-2.16,6.89,6.89,0,0,1-2.23-5.12V37.67A12.71,12.71,0,0,0,604.94,30a13.2,13.2,0,0,0-6.09-5.05,14,14,0,0,0-5.49-1.19,14.88,14.88,0,0,0-7.87,2.37,13.13,13.13,0,0,0-5,6.24,8.88,8.88,0,0,0-.82,2.6,17.45,17.45,0,0,0-.22,2.75v73.08a7,7,0,0,1-2.16,5.12A7.14,7.14,0,0,1,572,118a7.38,7.38,0,0,1-7.28-7.28V37.67A28.29,28.29,0,0,1,566,29.28a27.45,27.45,0,0,1,3.64-7.5,26.43,26.43,0,0,1,12.63-10.4,28.59,28.59,0,0,1,11.14-2.23,27.63,27.63,0,0,1,16,4.9A26.81,26.81,0,0,1,619.65,26.53Z"/><path class="cls-9" d="M644.3,9.3a7,7,0,0,1,5.13,2.15,7,7,0,0,1,2.15,5.13V100.8a2.46,2.46,0,0,0,.74,1.78,2.61,2.61,0,0,0,1.94.74h18.42A7.36,7.36,0,0,1,680,110.6a7.17,7.17,0,0,1-2.15,5.27,7,7,0,0,1-5.12,2.16H644.3a7.21,7.21,0,0,1-5.19-2.16,7,7,0,0,1-2.23-5.27v-94a6.89,6.89,0,0,1,2.23-5.13A7.24,7.24,0,0,1,644.3,9.3Z"/><path class="cls-10" d="M701.71,115.87a7.15,7.15,0,0,1-10.24,0,7.14,7.14,0,0,1-2.16-5.27v-94a7,7,0,0,1,2.16-5.13,7.17,7.17,0,0,1,10.24,0,7,7,0,0,1,2.16,5.13v94A7.14,7.14,0,0,1,701.71,115.87Z"/><path class="cls-11" d="M771.15,26.53a28.46,28.46,0,0,1,2.38,11.14v73.08a7.38,7.38,0,0,1-7.28,7.28,7.25,7.25,0,0,1-5.2-2.16,6.89,6.89,0,0,1-2.23-5.12V37.67A12.77,12.77,0,0,0,756.45,30a13.3,13.3,0,0,0-6.09-5.05,14,14,0,0,0-5.5-1.19A14.88,14.88,0,0,0,737,26.08a13.19,13.19,0,0,0-5,6.24,8.88,8.88,0,0,0-.82,2.6,17.45,17.45,0,0,0-.22,2.75v73.08a7,7,0,0,1-2.15,5.12,7.18,7.18,0,0,1-5.28,2.16,7.38,7.38,0,0,1-7.28-7.28V37.67a28,28,0,0,1,1.27-8.39,26.89,26.89,0,0,1,3.64-7.5,26.36,26.36,0,0,1,12.62-10.4,28.63,28.63,0,0,1,11.14-2.23,27.63,27.63,0,0,1,16,4.9A26.75,26.75,0,0,1,771.15,26.53Z"/><path class="cls-12" d="M804.27,24.45a2.64,2.64,0,0,0-.74,1.93V53.56a2.39,2.39,0,0,0,.74,1.86,2.81,2.81,0,0,0,1.93.67h19.46a7,7,0,0,1,5.13,2.15,7.19,7.19,0,0,1,2.15,5.27,7.34,7.34,0,0,1-7.28,7.28H806.2a2.55,2.55,0,0,0-2.67,2.68v27.18a2.44,2.44,0,0,0,.74,1.78,2.6,2.6,0,0,0,1.93.74h26.89a7.38,7.38,0,0,1,7.28,7.28,7.14,7.14,0,0,1-2.16,5.27,7,7,0,0,1-5.12,2.16H796.25a7,7,0,0,1-5.12-2.16,7.14,7.14,0,0,1-2.16-5.27v-94a7,7,0,0,1,2.16-5.13,7,7,0,0,1,5.12-2.15h36.84a7,7,0,0,1,5.12,2.15,7.16,7.16,0,0,1,0,10.25,7,7,0,0,1-5.12,2.16H806.2A2.64,2.64,0,0,0,804.27,24.45Z"/></svg>
