<svg id="Layer_1" data-name="Layer 1" xmlns="http://www.w3.org/2000/svg" xmlns:xlink="http://www.w3.org/1999/xlink" viewBox="0 0 1366 768"><defs><style>.cls-1{fill:url(#linear-gradient);}.cls-2{fill:#fff;}</style><linearGradient id="linear-gradient" x1="424.62" y1="383.57" x2="944.33" y2="383.57" gradientUnits="userSpaceOnUse"><stop offset="0" stop-color="#29abe2"/><stop offset="0.28" stop-color="#22a2db"/><stop offset="0.4" stop-color="#1e9cd7"/><stop offset="0.87" stop-color="#0075be"/><stop offset="0.99" stop-color="#005b97"/></linearGradient></defs><title>GastroOnline-3</title><path class="cls-1" d="M944.33,536.68A106.74,106.74,0,0,1,837.58,643.43H531.38A106.76,106.76,0,0,1,424.62,536.68V230.48A106.76,106.76,0,0,1,531.38,123.72h306.2A106.74,106.74,0,0,1,944.33,230.48Z"/><path class="cls-2" d="M722.45,404a14.32,14.32,0,0,1-1,2.07A9.32,9.32,0,0,0,722.45,404Z"/><polygon class="cls-2" points="810.46 398.98 810.46 398.97 776.25 398.99 810.46 398.98"/><path class="cls-2" d="M603.19,275.81a155.31,155.31,0,0,1,48.61-32.88A146.39,146.39,0,0,1,707,231a146.64,146.64,0,0,0-55.25,12,157.39,157.39,0,0,0-81.93,81.49,147.65,147.65,0,0,0-12.47,59.15h0a147.65,147.65,0,0,1,12.47-59.15A156.74,156.74,0,0,1,603.19,275.81Z"/><polygon class="cls-2" points="703.85 398.16 704.11 398.82 704.38 398.82 704.31 398.16 703.85 398.16"/><path class="cls-2" d="M591.12,269.33A168,168,0,0,0,558.51,319a161.12,161.12,0,0,0-13,64.53h0a161.14,161.14,0,0,1,13-64.54A168,168,0,0,1,591.12,269.33Z"/><path class="cls-2" d="M816.85,390.42l-98.32.15-13.72,0-1,7.51,0-.12,1-7.58,13.78.4c-5.45-4.9-15.12-7.74-25.85-7.74H619.45c-3.37,0-6.1,1.43-6.1,3.44s2.73,3.45,6.1,3.45h49.92v8.6H619.45c-3.37,0-6.1.57-6.1,2.58s2.73,2.58,6.1,2.58h49.92v8.6H619.45c-3.37,0-6.1,1.43-6.1,3.45s2.73,3.44,6.1,3.44h73.27c12.83,0,23.83-5.89,28.34-11.82,0,0,0-.39.07-.43l81.92-.09-.43,89A158.85,158.85,0,0,1,761,519.4a142.47,142.47,0,0,1-106.14-2.17A147.35,147.35,0,0,1,577.3,439.7a144.33,144.33,0,0,1,0-112.25,147.28,147.28,0,0,1,77.53-77.52A140.46,140.46,0,0,1,711,238.56c18.74,0,36,3.22,51.26,9.55a175.67,175.67,0,0,1,44.56,27.37,13.18,13.18,0,0,0,9.25,4,14,14,0,0,0,10.61-4.77,15.13,15.13,0,0,0,4.06-10.31c0-3.47-1.59-6.82-4.72-9.95l-.16-.15a153.48,153.48,0,0,0-53.74-33.07A180.37,180.37,0,0,0,711,210.47a169.46,169.46,0,0,0-67.56,13.66A172.84,172.84,0,0,0,551.5,316a174,174,0,0,0,0,135.12A172.86,172.86,0,0,0,643.39,543,169.46,169.46,0,0,0,711,556.68a181.81,181.81,0,0,0,61.31-10.79,152.94,152.94,0,0,0,54-33.08l.15-.15a14.32,14.32,0,0,0,4.31-10.33l.41-97.24C831.1,396.18,825.51,390.42,816.85,390.42Zm-112.74,8.4-.26-.66h.46l.07.66ZM545.48,383.58h0a161.12,161.12,0,0,1,13-64.53,168,168,0,0,1,32.61-49.71A168,168,0,0,0,558.51,319,161.14,161.14,0,0,0,545.48,383.58Zm11.22,0c0-20.95,4.8-40.67,12.8-59.15a156.94,156.94,0,0,1,82.09-81.49,147.09,147.09,0,0,1,55.34-12,146.28,146.28,0,0,0-55.18,12,155.3,155.3,0,0,0-48.58,32.88c-13.93,13.93-25.69,30.14-33.68,48.61s-12.79,38.2-12.79,59.15Zm164.71,22.51a14.32,14.32,0,0,0,1-2.07A9.32,9.32,0,0,1,721.41,406.08Zm87.33-7.1H774.53l34.21,0Z"/><path class="cls-2" d="M733,329.68H638.21c-14.24,0-25.83,12.59-25.83,29.42,0,3.37,2.31,5,5.16,5H823.86a5.17,5.17,0,1,0,0-10.33H736.47V333.43C736.47,330.06,735.81,329.68,733,329.68Zm-8.53,24.09H623.6c2.13-6.88,7.87-13.76,14.61-13.76h86.22Z"/></svg>