<?xml version="1.0" encoding="utf-8"?>
<!-- Generator: Adobe Illustrator 16.0.0, SVG Export Plug-In . SVG Version: 6.00 Build 0)  -->
<!DOCTYPE svg PUBLIC "-//W3C//DTD SVG 1.1//EN" "http://www.w3.org/Graphics/SVG/1.1/DTD/svg11.dtd">
<svg version="1.1" id="Warstwa_1" xmlns="http://www.w3.org/2000/svg" xmlns:xlink="http://www.w3.org/1999/xlink" x="0px" y="0px"
	 width="112px" height="56.693px" viewBox="0 0 112 56.693" enable-background="new 0 0 112 56.693" xml:space="preserve">
<g>
	<g>
		<path fill="#FFFFFF" d="M42.65,41.975h2.135v3.053c-0.332,0.105-0.67,0.186-1.014,0.24s-0.741,0.082-1.193,0.082
			c-0.951,0-1.691-0.283-2.221-0.848c-0.529-0.566-0.795-1.359-0.795-2.377c0-0.654,0.132-1.225,0.394-1.717
			c0.262-0.49,0.639-0.865,1.132-1.125c0.492-0.26,1.069-0.389,1.73-0.389c0.67,0,1.294,0.123,1.872,0.369l-0.283,0.645
			c-0.567-0.24-1.112-0.361-1.637-0.361c-0.764,0-1.361,0.229-1.79,0.684c-0.43,0.455-0.645,1.086-0.645,1.895
			c0,0.846,0.207,1.49,0.62,1.928c0.414,0.438,1.021,0.656,1.823,0.656c0.436,0,0.86-0.049,1.275-0.15v-1.932H42.65V41.975z"/>
		<path fill="#FFFFFF" d="M50.238,45.264l-0.781-1.998H46.94l-0.772,1.998h-0.739l2.481-6.305h0.615l2.469,6.305H50.238z
			 M49.229,42.609l-0.73-1.945c-0.094-0.246-0.191-0.549-0.291-0.906c-0.063,0.275-0.152,0.576-0.271,0.906l-0.738,1.945H49.229z"/>
		<path fill="#FFFFFF" d="M55.4,43.594c0,0.551-0.201,0.982-0.602,1.291c-0.4,0.311-0.943,0.465-1.631,0.465
			c-0.744,0-1.318-0.096-1.719-0.287v-0.705c0.258,0.109,0.539,0.195,0.842,0.258c0.305,0.063,0.604,0.094,0.902,0.094
			c0.486,0,0.854-0.092,1.1-0.277c0.246-0.184,0.369-0.441,0.369-0.77c0-0.219-0.043-0.396-0.131-0.535s-0.234-0.268-0.438-0.385
			c-0.205-0.117-0.518-0.25-0.936-0.398c-0.584-0.209-1-0.457-1.252-0.744c-0.25-0.285-0.375-0.66-0.375-1.121
			c0-0.482,0.182-0.867,0.545-1.154s0.846-0.43,1.443-0.43c0.625,0,1.197,0.115,1.723,0.344l-0.229,0.635
			c-0.518-0.217-1.021-0.326-1.512-0.326c-0.387,0-0.688,0.084-0.906,0.25c-0.217,0.166-0.326,0.396-0.326,0.691
			c0,0.217,0.041,0.396,0.121,0.535s0.215,0.266,0.406,0.381c0.189,0.117,0.48,0.244,0.873,0.385
			c0.658,0.234,1.111,0.486,1.359,0.756S55.4,43.164,55.4,43.594z"/>
		<path fill="#FFFFFF" d="M58.617,45.264h-0.73v-5.631h-1.988v-0.648h4.707v0.648h-1.988V45.264z"/>
		<path fill="#FFFFFF" d="M62.279,42.652v2.611h-0.729v-6.279h1.721c0.771,0,1.34,0.148,1.707,0.443
			c0.369,0.295,0.553,0.738,0.553,1.33c0,0.83-0.422,1.393-1.264,1.684l1.705,2.822h-0.863l-1.52-2.611H62.279z M62.279,42.025
			h1.002c0.516,0,0.893-0.102,1.133-0.307s0.361-0.512,0.361-0.922c0-0.414-0.123-0.715-0.367-0.896
			c-0.244-0.184-0.639-0.275-1.18-0.275h-0.949V42.025z"/>
		<path fill="#FFFFFF" d="M72.438,42.115c0,1.006-0.256,1.795-0.764,2.371s-1.215,0.863-2.119,0.863
			c-0.924,0-1.639-0.283-2.141-0.848c-0.502-0.566-0.754-1.365-0.754-2.395c0-1.023,0.252-1.814,0.756-2.377
			s1.221-0.844,2.148-0.844c0.9,0,1.605,0.285,2.111,0.857C72.184,40.318,72.438,41.107,72.438,42.115z M67.434,42.115
			c0,0.852,0.182,1.496,0.543,1.936c0.363,0.439,0.889,0.658,1.578,0.658c0.695,0,1.221-0.219,1.576-0.656s0.533-1.084,0.533-1.938
			c0-0.844-0.178-1.484-0.531-1.922c-0.354-0.436-0.877-0.654-1.568-0.654c-0.697,0-1.225,0.219-1.588,0.658
			C67.615,40.637,67.434,41.277,67.434,42.115z"/>
	</g>
	<path fill="#FFFFFF" d="M25.909,28.156v-6.936h4.371v-4.607h-4.371v-3.57h-4.026l-1.588,3.742l-2.736,1.936v2.5h2.154v7.344
		c0,2.098,0.456,3.65,1.368,4.662s2.4,1.518,4.466,1.518c1.007,0,1.885-0.076,2.634-0.229c0.75-0.15,1.539-0.406,2.367-0.762v-4.482
		c-1.153,0.41-2.145,0.613-2.973,0.613C26.464,29.885,25.909,29.309,25.909,28.156z"/>
	<path fill="#FFFFFF" d="M71.906,13.342c-1.457-1.268-3.639-1.902-6.543-1.902h-7.957v22.99h6.213v-7.627h1.744
		c2.789,0,4.941-0.699,6.457-2.1c1.514-1.398,2.271-3.383,2.271-5.951C74.092,16.414,73.363,14.609,71.906,13.342z M66.977,20.953
		c-0.551,0.523-1.293,0.785-2.227,0.785h-1.131v-5.283h1.604c1.719,0,2.578,0.775,2.578,2.328
		C67.801,19.705,67.525,20.43,66.977,20.953z"/>
	<path fill="#FFFFFF" d="M92.256,13.342c-1.459-1.268-3.639-1.902-6.543-1.902h-7.957v22.99h6.211v-7.627h1.746
		c2.789,0,4.941-0.699,6.455-2.1c1.516-1.398,2.273-3.383,2.273-5.951C94.441,16.414,93.713,14.609,92.256,13.342z M87.324,20.953
		c-0.549,0.523-1.291,0.785-2.225,0.785h-1.133v-5.283h1.605c1.719,0,2.578,0.775,2.578,2.328
		C88.15,19.705,87.875,20.43,87.324,20.953z"/>
	<path fill="#FFFFFF" d="M47.326,11.344h-8.287L31.538,34.43h6.825l1.164-4.309h7.47l1.132,4.309h6.793L47.326,11.344z
		 M39.825,22.793l3.242-8.428l3.02,7.691c0.03,0.076-0.008,0.164-0.085,0.193c-0.073,0.029-0.163-0.006-0.194-0.084l-2.738-6.973
		l-2.886,7.504h1.649c0.083,0,0.15,0.066,0.15,0.148c0,0.084-0.067,0.15-0.15,0.15h-2.087L39.825,22.793z M41.822,21.846
		c0.083,0,0.15,0.066,0.15,0.15c0,0.082-0.067,0.15-0.15,0.15h-0.861l2.106-5.295l1.982,4.9c0.031,0.076-0.006,0.164-0.082,0.195
		c-0.077,0.031-0.164-0.006-0.195-0.082l-1.703-4.209l-1.667,4.189H41.822z M46.37,25.742c-0.075,0.355-0.61,1.867-1.938,1.867
		c-1.122,0-1.596-0.045-2.4-1.357c-0.399-0.65-1.144-1.246-1.317-1.771c-0.133-0.4,0.342-1.297,1.68-0.162c0,0,0-2.826,0.003-3.768
		c0.001-0.904,1.331-0.852,1.326-0.004c-0.003,0.516-0.011,2.223-0.011,2.223s0.439-0.465,0.882,0c0,0,0.45-0.471,0.929,0.002
		c0,0,0.573-0.275,0.814,0.332C46.578,23.707,46.504,25.096,46.37,25.742z"/>
</g>
</svg>
